<?xml version="1.0" standalone="no"?>
<!DOCTYPE svg PUBLIC "-//W3C//DTD SVG 20010904//EN"
 "http://www.w3.org/TR/2001/REC-SVG-20010904/DTD/svg10.dtd">
<svg version="1.0" xmlns="http://www.w3.org/2000/svg"
 width="960.000000pt" height="304.000000pt" viewBox="0 0 960.000000 304.000000"
 preserveAspectRatio="xMidYMid meet">
<metadata>
Created by potrace 1.15, written by Peter Selinger 2001-2017
</metadata>
<g transform="translate(0.000000,304.000000) scale(0.100000,-0.100000)"
fill="#000000" stroke="none">
<path d="M1180 2591 l0 -80 -84 -39 c-228 -107 -427 -309 -525 -534 l-34 -77
-76 -3 -76 -3 0 -370 0 -370 80 -2 c57 -1 81 -5 84 -15 13 -41 94 -183 139
-245 98 -134 277 -277 424 -339 l68 -29 0 -87 0 -88 375 0 375 0 0 88 1 87 75
35 c151 68 290 176 388 299 59 74 126 185 151 248 l17 42 81 3 82 3 0 370 0
370 -76 3 -76 3 -32 74 c-98 222 -285 417 -505 524 l-105 52 -3 77 -3 77 -372
3 -373 2 0 -79z m390 -151 c0 -5 -15 -10 -33 -10 -52 0 -129 -27 -176 -60 -41
-30 -92 -113 -78 -127 12 -11 144 15 187 37 44 23 50 24 50 11 0 -22 -133 -71
-229 -85 l-44 -7 6 36 c14 86 85 164 180 196 57 20 137 25 137 9z m124 -14
c19 -8 53 -31 76 -53 59 -52 114 -173 80 -173 -43 0 -175 37 -223 63 -53 28
-137 107 -137 128 0 18 29 8 35 -11 3 -10 27 -37 52 -60 49 -42 110 -66 202
-77 53 -6 53 -6 46 18 -17 54 -80 120 -137 144 -21 8 -38 20 -38 25 0 13 4 13
44 -4z m408 -134 c51 -46 98 -142 70 -142 -4 0 -14 17 -21 38 -20 56 -48 90
-91 112 -22 11 -42 20 -45 20 -3 0 -5 -36 -5 -80 0 -96 -2 -94 148 -121 136
-24 186 -49 234 -119 21 -30 38 -61 38 -67 0 -10 -28 -13 -105 -13 l-106 0
-19 43 c-20 42 -27 113 -11 103 4 -3 11 -24 14 -46 3 -22 12 -52 21 -65 15
-23 23 -25 90 -25 40 0 75 3 79 6 10 11 -30 80 -63 107 -35 30 -75 43 -174 57
-166 24 -166 25 -166 149 0 54 3 100 6 104 10 9 60 -20 106 -61z m-994 -49
l-3 -108 -36 -12 c-20 -6 -74 -17 -120 -23 -97 -13 -143 -31 -182 -68 -29 -27
-57 -72 -57 -92 0 -17 146 -13 164 5 16 16 36 76 36 108 0 9 5 17 11 17 16 0
3 -77 -20 -115 -17 -30 -17 -30 -119 -33 -68 -2 -102 1 -102 8 0 21 38 85 67
112 42 40 107 65 203 78 46 6 99 18 117 25 l33 14 0 80 c0 88 -5 95 -50 64
-52 -34 -79 -67 -91 -109 -8 -24 -19 -44 -26 -44 -16 0 7 68 38 112 23 32 103
88 126 88 11 0 13 -23 11 -107z m616 -89 c458 -117 663 -660 397 -1052 -96
-142 -268 -254 -441 -288 -298 -58 -609 98 -742 372 -50 103 -68 181 -69 297
-1 154 29 255 110 379 161 247 461 364 745 292z m-888 -411 c-9 -63 -41 -160
-67 -202 -31 -52 -35 -28 -5 38 32 72 47 181 24 181 -29 0 -109 -63 -134 -107
-15 -25 -31 -74 -37 -114 -14 -85 -32 -93 -24 -9 12 114 73 202 167 243 19 9
46 16 59 16 22 1 23 -1 17 -46z m1519 26 c25 -12 65 -43 88 -69 45 -50 64 -96
74 -180 8 -68 -13 -66 -22 2 -11 80 -32 129 -73 171 -41 43 -88 71 -102 62
-22 -14 1 -150 34 -200 18 -27 21 -49 6 -40 -30 19 -89 186 -90 253 0 29 25
29 85 1z m-1637 -273 c44 -41 90 -132 108 -215 18 -87 18 -101 -3 -101 -31 1
-107 40 -141 73 -41 38 -86 123 -72 132 6 4 17 -9 25 -29 21 -49 71 -103 116
-127 21 -10 41 -19 44 -19 12 0 3 83 -16 145 -15 51 -31 78 -67 114 -26 27
-53 50 -61 53 -9 2 -11 9 -7 17 9 14 17 9 74 -43z m1752 36 c0 -4 -16 -16 -35
-26 -37 -20 -75 -69 -100 -129 -17 -41 -33 -167 -21 -167 4 0 23 9 44 19 47
24 83 63 113 121 15 30 24 39 27 28 5 -25 -33 -91 -73 -126 -42 -38 -78 -57
-124 -67 l-34 -7 7 56 c13 117 78 243 150 294 27 20 46 21 46 4z m-1578 -499
c28 -31 49 -133 28 -133 -5 0 -10 8 -10 18 0 31 -20 91 -36 107 -18 18 -164
22 -164 5 0 -20 28 -65 57 -92 39 -37 85 -55 182 -68 46 -6 100 -17 120 -23
l36 -12 3 -113 3 -113 -33 17 c-66 33 -100 67 -129 127 -15 33 -26 64 -23 69
9 14 21 0 27 -29 8 -40 47 -94 86 -120 56 -38 61 -33 61 58 l0 80 -32 14 c-18
7 -55 16 -83 20 -129 16 -189 38 -238 84 -28 25 -67 90 -67 111 0 6 37 10 98
10 82 0 102 -3 114 -17z m1538 5 c0 -20 -61 -108 -90 -128 -42 -30 -99 -48
-192 -60 -45 -6 -94 -18 -110 -26 -27 -14 -28 -17 -28 -94 0 -44 2 -80 5 -80
3 0 23 9 45 20 41 21 69 54 90 110 16 43 30 60 30 37 0 -53 -54 -129 -122
-173 -64 -41 -68 -37 -68 76 0 95 1 100 25 116 13 9 68 23 122 31 98 14 171
39 206 71 24 21 58 87 50 96 -4 3 -39 6 -79 6 -66 0 -75 -2 -89 -24 -9 -13
-19 -43 -23 -67 -4 -24 -12 -43 -17 -41 -14 4 -7 49 15 100 l19 42 105 0 c74
0 106 -4 106 -12z m-1025 -290 c62 -20 130 -57 121 -65 -2 -3 -34 7 -69 21
-35 14 -90 28 -121 32 -51 6 -56 5 -56 -12 1 -28 50 -95 90 -121 40 -28 121
-53 167 -53 18 0 33 -4 33 -10 0 -15 -69 -12 -127 5 -97 29 -176 112 -190 199
l-6 36 49 -6 c27 -4 76 -15 109 -26z m451 18 c6 -17 -26 -96 -55 -132 -27 -35
-63 -62 -105 -79 -52 -22 -55 0 -3 23 24 11 58 35 76 53 34 35 66 97 56 107
-11 12 -148 -19 -201 -45 -39 -19 -62 -39 -82 -70 -15 -23 -33 -43 -39 -43
-17 0 -16 6 3 35 9 14 23 25 31 25 8 0 12 4 8 9 -14 24 113 94 211 115 89 19
94 19 100 2z"/>
<path d="M1572 2016 c-32 -35 -74 -92 -91 -127 -26 -52 -31 -73 -31 -133 0
-39 9 -109 20 -156 23 -102 25 -199 5 -266 -8 -27 -43 -106 -79 -176 -67 -133
-98 -230 -78 -250 7 -7 16 1 31 31 12 23 72 94 134 159 76 80 121 137 141 178
80 162 77 236 -18 487 -40 106 -31 194 27 271 24 30 26 46 6 46 -3 0 -34 -29
-67 -64z m-17 -133 c0 -69 5 -91 44 -188 70 -175 67 -287 -11 -423 -30 -53
-206 -247 -216 -238 -2 3 24 60 58 128 35 68 69 146 76 173 20 72 17 171 -7
272 -30 129 -24 220 22 296 18 31 34 57 34 57 0 0 0 -35 0 -77z"/>
<path d="M1786 1935 c-111 -75 -128 -139 -77 -298 38 -120 41 -199 8 -272 -43
-98 -90 -175 -144 -237 -63 -73 -113 -146 -113 -165 0 -18 25 -16 41 3 7 9 65
54 128 101 178 132 254 221 287 341 23 82 14 129 -52 262 -60 123 -69 182 -38
255 8 20 14 39 12 40 -2 2 -25 -12 -52 -30z m58 -285 c48 -98 56 -120 56 -170
0 -68 -46 -170 -110 -242 -32 -37 -147 -130 -250 -202 -15 -11 -5 3 80 108 52
64 123 200 141 270 16 62 7 131 -30 243 -17 51 -31 102 -31 113 0 26 26 78 54
108 l21 24 6 -70 c6 -58 17 -90 63 -182z"/>
<path d="M1376 1768 c-3 -13 -28 -61 -56 -108 -59 -100 -85 -177 -95 -280 -12
-140 28 -340 69 -340 9 0 16 3 16 8 6 90 12 109 50 163 98 139 114 216 76 362
-14 53 -26 124 -26 157 0 45 -4 60 -14 60 -8 0 -16 -10 -20 -22z"/>
<path d="M3923 2469 c3 -15 -50 -30 -78 -23 -14 3 -31 -6 -59 -35 -32 -33 -40
-48 -44 -90 -2 -27 -1 -66 2 -86 8 -41 68 -108 110 -125 38 -14 166 -13 166 2
0 4 6 5 13 3 17 -6 44 17 44 38 0 21 0 21 -40 1 -17 -9 -58 -18 -92 -20 -76
-3 -73 -3 -55 -14 13 -8 12 -10 -2 -10 -11 0 -18 8 -18 19 0 11 -13 28 -30 37
-53 32 -76 128 -45 188 12 22 12 32 4 42 -7 9 -8 14 -1 14 6 0 12 -6 15 -12 3
-9 12 -6 29 9 33 31 103 43 156 27 23 -6 42 -8 42 -3 0 5 -10 9 -22 9 -18 0
-20 2 -9 9 20 13 41 2 41 -20 0 -10 5 -19 11 -19 6 0 9 10 7 22 -2 14 -15 26
-38 34 -45 16 -111 18 -107 3z"/>
<path d="M5190 2290 c0 -183 1 -190 20 -190 19 0 20 7 20 190 0 183 -1 190
-20 190 -19 0 -20 -7 -20 -190z"/>
<path d="M5966 2465 c-46 -16 -81 -48 -72 -64 4 -6 12 -9 17 -5 5 3 7 9 4 14
-3 5 -1 11 4 14 13 8 8 -21 -6 -35 -8 -8 -13 -8 -17 0 -4 6 -12 11 -18 11 -7
0 -6 -5 1 -14 8 -10 9 -16 1 -21 -5 -3 -10 0 -10 7 0 7 -6 4 -12 -6 -6 -11
-12 -45 -12 -76 -1 -67 22 -111 83 -157 39 -30 49 -33 115 -33 93 0 136 14
136 44 l0 23 -57 -19 c-93 -32 -172 -9 -211 61 -21 38 -31 98 -19 118 4 6 4
19 0 29 -4 11 -3 15 5 10 6 -3 16 3 22 14 28 52 134 74 215 45 48 -18 45 -17
45 -5 0 6 -10 10 -22 11 -22 1 -22 1 2 10 18 6 13 7 -19 3 -30 -4 -41 -3 -37
5 4 6 15 11 24 12 11 1 8 4 -8 9 -39 13 -111 10 -154 -5z"/>
<path d="M6250 2290 c0 -182 1 -190 20 -190 18 0 20 8 22 97 3 96 3 97 33 113
26 15 34 15 56 4 35 -18 39 -31 39 -130 0 -75 2 -84 18 -84 16 0 19 10 20 71
3 87 -12 144 -41 164 -30 19 -95 4 -124 -29 -17 -20 -22 -22 -27 -10 -9 24 -7
57 5 74 7 11 8 4 3 -24 -5 -28 -4 -37 5 -32 7 4 11 38 11 87 0 72 -2 79 -20
79 -19 0 -20 -7 -20 -190z"/>
<path d="M7070 2290 c0 -183 1 -190 20 -190 19 0 20 7 20 190 0 183 -1 190
-20 190 -19 0 -20 -7 -20 -190z"/>
<path d="M5490 2332 c-101 -50 -83 -201 27 -231 48 -14 62 -14 43 0 -12 9 -10
10 8 6 29 -7 52 1 52 17 0 9 -15 11 -51 8 -42 -3 -54 -1 -75 19 -13 12 -24 28
-24 36 0 7 -4 13 -10 13 -5 0 -10 -7 -10 -15 0 -8 5 -15 10 -15 6 0 10 -4 10
-10 0 -18 -18 -11 -25 10 -3 11 3 40 14 66 12 25 18 50 15 56 -6 10 13 38 27
38 5 0 9 -4 9 -10 0 -5 -7 -10 -15 -10 -8 0 -15 -5 -15 -11 0 -5 6 -7 12 -2
18 11 108 21 102 11 -3 -4 1 -8 9 -8 28 0 7 38 -25 44 -44 9 -49 8 -88 -12z"/>
<path d="M6559 2339 c-16 -6 -29 -20 -31 -34 -5 -23 -4 -23 16 -10 22 16 74
20 92 7 6 -4 16 -22 22 -41 14 -40 15 -51 3 -33 -12 19 -85 -6 -119 -41 -25
-26 -26 -30 -12 -54 8 -15 19 -25 24 -24 5 2 12 -2 15 -7 4 -7 20 -5 46 4 24
8 41 10 43 4 6 -18 72 -8 72 11 0 5 -11 3 -25 -3 -19 -9 -28 -9 -37 0 -6 6 -8
15 -4 19 4 4 11 1 16 -7 10 -16 12 152 3 177 -7 17 -56 43 -80 42 -10 0 -30
-5 -44 -10z"/>
<path d="M7205 2335 c-17 -9 -31 -23 -31 -34 0 -16 2 -17 31 -3 72 36 80 39
71 23 -3 -5 1 -11 9 -15 9 -3 15 -18 15 -35 0 -26 -5 -31 -50 -46 -64 -21 -91
-62 -65 -101 8 -13 21 -25 28 -25 24 -2 52 3 64 13 8 6 19 4 35 -5 24 -16 68
-7 68 12 0 7 -9 7 -26 1 -18 -7 -30 -7 -39 0 -9 7 -26 7 -56 1 -58 -14 -57
-14 -69 9 -8 15 -8 25 0 38 11 16 11 15 6 -2 -4 -10 -1 -25 5 -32 17 -21 31
-17 18 5 -7 11 -9 26 -4 37 5 11 7 23 6 27 -1 5 3 6 9 2 6 -4 22 0 35 9 13 9
31 13 39 10 18 -7 22 -24 6 -24 -5 0 -10 -7 -10 -15 0 -19 21 -65 31 -65 4 0
7 40 7 90 1 69 -3 94 -16 110 -23 27 -79 35 -117 15z"/>
<path d="M4940 2333 c-28 -10 -69 -56 -75 -84 -13 -57 12 -111 62 -137 27 -15
36 -15 28 -2 -3 6 -1 10 4 10 6 0 11 -4 11 -10 0 -13 25 -13 73 1 101 28 100
191 -2 219 -39 11 -77 12 -101 3z m95 -13 c14 -6 15 -9 5 -10 -12 0 -11 -3 3
-11 31 -18 47 -62 36 -102 -12 -44 -43 -65 -107 -71 -42 -4 -53 -2 -70 17 -11
12 -23 32 -26 44 -8 24 12 103 25 103 4 0 2 -15 -6 -33 -8 -19 -11 -45 -8 -58
7 -27 41 -69 57 -69 6 0 -1 11 -16 24 -33 27 -38 82 -12 121 12 19 13 25 3 25
-10 0 -10 3 -1 12 10 10 15 10 22 -2 5 -8 10 -10 10 -5 0 6 16 10 38 8 32 -2
33 -1 12 6 -20 7 -21 9 -5 9 11 0 29 -3 40 -8z"/>
<path d="M6780 2155 c0 -178 1 -185 20 -185 18 0 20 7 20 54 0 72 -19 85 -22
14 l-2 -53 -3 50 c-5 58 13 80 53 65 53 -21 145 29 126 67 -6 12 -4 28 4 48
l14 30 -5 -40 c-4 -30 -3 -35 4 -20 13 28 13 65 0 65 -5 0 -8 4 -5 9 11 16 -6
43 -24 38 -9 -2 -25 2 -36 11 -18 13 -17 14 11 8 l30 -6 -25 15 c-15 8 -52 14
-92 15 l-68 0 0 -185z m75 165 l-30 -8 30 -1 c51 -2 71 -11 88 -41 35 -58 10
-123 -52 -140 -21 -5 -46 -7 -55 -4 -9 3 -16 2 -16 -3 0 -5 -7 -10 -15 -10 -9
0 -14 5 -12 11 3 6 10 10 16 9 7 -2 11 18 11 59 0 71 -16 69 -23 -2 -2 -25 -4
-3 -5 48 l-2 92 48 -1 c42 -1 44 -2 17 -9z"/>
<path d="M8070 2337 c0 -2 21 -45 46 -96 l46 -92 -22 -52 c-13 -29 -29 -61
-36 -72 -16 -22 -18 -39 -5 -30 12 7 41 64 41 81 0 18 17 27 26 13 5 -8 3 -9
-7 -4 -8 5 -11 5 -7 0 11 -12 -39 -103 -59 -108 -14 -4 -12 -5 5 -6 20 -1 32
17 88 137 122 255 114 232 85 232 -14 0 -25 -14 -38 -47 -10 -27 -17 -50 -17
-53 1 -3 -7 -13 -17 -24 -18 -18 -19 -18 -35 18 -10 20 -21 36 -26 36 -11 0
-10 -18 2 -25 6 -3 10 -14 10 -23 0 -9 -8 -1 -17 18 -10 19 -21 37 -25 38 -5
2 -5 8 -2 13 3 6 0 18 -8 27 -12 15 -11 16 5 3 9 -7 17 -20 17 -27 0 -8 5 -14
10 -14 14 0 12 12 -6 38 -12 18 -54 32 -54 19z"/>
</g>
</svg>
