<?xml version="1.0" standalone="no"?>
<!DOCTYPE svg PUBLIC "-//W3C//DTD SVG 20010904//EN"
 "http://www.w3.org/TR/2001/REC-SVG-20010904/DTD/svg10.dtd">
<svg version="1.0" xmlns="http://www.w3.org/2000/svg"
 width="264.000000pt" height="164.000000pt" viewBox="0 0 264.000000 164.000000"
 preserveAspectRatio="xMidYMid meet">

<g transform="translate(0.000000,164.000000) scale(0.100000,-0.100000)"
fill="#03a9f4" stroke="none">
<path d="M0 1514 l0 -126 40 7 c39 7 41 5 51 -25 10 -28 13 -29 28 -17 33 29
81 47 127 47 39 0 51 -5 80 -34 33 -33 34 -34 56 -16 66 51 160 66 206 34 47
-33 52 -58 52 -289 l0 -215 -45 0 -45 0 0 208 c0 148 -3 211 -12 220 -23 23
-74 14 -120 -21 l-43 -33 -3 -187 -2 -187 -45 0 -45 0 0 203 c0 185 -2 205
-18 220 -23 21 -54 21 -95 1 -69 -35 -67 -28 -67 -236 l0 -188 -45 0 -45 0 -3
238 c-2 165 -3 118 -5 -155 -1 -216 -1 -393 1 -393 1 0 27 7 57 15 69 19 67
19 75 -4 6 -19 6 -19 48 -1 70 32 143 24 187 -20 l21 -21 30 25 c51 44 155 48
208 8 43 -32 50 -70 50 -294 l1 -208 -70 0 -70 0 0 186 c0 109 -4 193 -10 205
-13 23 -31 24 -76 3 l-34 -16 0 -189 0 -189 -70 0 -70 0 0 186 c0 109 -4 193
-10 205 -13 23 -41 24 -80 4 l-30 -16 0 -189 0 -190 -75 0 -75 0 -3 233 -2
232 -3 -267 -2 -268 1320 0 1320 0 0 93 0 92 -17 -34 c-32 -64 -144 -110 -238
-96 -63 10 -166 46 -171 60 -4 10 26 85 41 103 1 1 26 -8 56 -21 79 -35 125
-42 155 -22 31 20 32 60 2 79 -13 8 -43 17 -68 21 -64 10 -126 39 -144 68 -29
43 -31 116 -4 167 33 63 88 90 184 90 74 0 184 -31 184 -51 0 -17 -40 -89 -49
-89 -5 0 -25 7 -46 16 -47 19 -114 15 -129 -8 -19 -30 6 -51 85 -74 94 -26
116 -38 139 -77 l20 -32 0 350 0 350 -20 -32 c-41 -68 -167 -94 -286 -58 -75
23 -79 27 -60 64 19 37 21 37 77 11 97 -44 199 -16 199 54 0 45 -25 64 -111
86 -40 11 -84 27 -98 38 -85 62 -73 189 23 243 51 28 142 31 210 5 50 -19 52
-22 34 -61 -13 -29 -17 -30 -65 -10 -40 17 -106 20 -133 5 -27 -14 -41 -62
-26 -91 9 -19 29 -28 91 -45 94 -24 116 -35 144 -70 l21 -27 0 272 0 271
-1320 0 -1320 0 0 -126z m2250 54 c15 -16 20 -35 20 -73 0 -64 -25 -111 -79
-150 l-43 -30 -19 23 c-19 24 -19 24 16 57 37 34 45 55 21 55 -42 0 -63 85
-29 122 23 26 87 24 113 -4z m-722 -167 c11 -7 11 -16 2 -48 -11 -37 -16 -41
-54 -46 -29 -4 -49 -15 -68 -37 l-28 -30 0 -180 0 -180 -45 0 -45 0 0 219 c0
128 -4 231 -10 247 -13 33 -6 40 43 49 35 7 38 6 48 -25 7 -17 14 -28 18 -23
13 17 42 36 78 49 46 16 45 16 61 5z m228 -183 c37 -105 70 -185 73 -177 3 8
28 88 56 179 l51 165 51 3 52 3 -94 -280 c-51 -155 -104 -300 -117 -323 l-23
-43 -67 -3 -66 -3 37 40 c20 22 44 55 54 73 l18 34 -90 244 c-50 134 -91 246
-91 250 0 7 53 27 76 29 6 1 42 -85 80 -191z m-654 144 l33 -32 3 -183 c3
-164 5 -184 23 -203 19 -21 19 -21 -2 -47 -26 -34 -43 -34 -76 -1 -21 22 -30
24 -42 15 -61 -44 -140 -52 -208 -22 -52 24 -73 63 -73 134 0 103 75 164 216
174 l74 6 0 43 c0 47 -17 70 -57 80 -29 8 -94 -9 -141 -37 -18 -10 -35 -19
-37 -19 -1 0 -12 14 -23 32 -21 32 -21 32 -1 46 49 34 124 52 201 50 73 -3 80
-5 110 -36z m968 -856 c0 -167 3 -312 6 -321 4 -9 16 -20 28 -25 21 -7 52 -77
40 -89 -2 -3 -31 -7 -63 -9 -67 -5 -110 13 -138 55 -16 24 -18 63 -22 360 l-3
333 76 0 76 0 0 -304z m-955 75 c79 -36 114 -100 123 -223 l5 -78 -153 0
c-135 0 -151 -2 -146 -16 3 -9 6 -21 6 -28 0 -8 12 -25 26 -40 36 -35 101 -36
162 -1 l42 24 25 -39 c14 -22 25 -44 25 -49 0 -6 -21 -22 -46 -37 -55 -33
-176 -45 -239 -24 -48 16 -101 63 -128 114 -30 56 -32 231 -4 288 24 48 77 99
119 114 50 19 137 16 183 -5z m592 -7 c54 -40 63 -73 63 -240 0 -139 2 -153
21 -178 l21 -27 -29 -37 c-37 -45 -62 -50 -92 -18 l-23 24 -36 -21 c-50 -30
-162 -31 -210 -2 -98 59 -92 238 10 291 16 8 68 21 114 27 l85 12 -7 30 c-4
16 -12 33 -18 37 -23 15 -75 7 -130 -21 l-57 -28 -29 51 -30 51 23 17 c75 57
264 76 324 32z"/>
<path d="M940 1128 c-69 -19 -101 -75 -79 -138 18 -50 71 -65 129 -35 46 24
60 52 60 122 l0 63 -37 -1 c-21 0 -54 -5 -73 -11z"/>
<path d="M971 464 c-12 -15 -21 -37 -21 -50 0 -23 3 -24 70 -24 67 0 70 1 70
24 0 36 -37 76 -70 76 -19 0 -36 -9 -49 -26z"/>
<path d="M1537 279 c-27 -16 -39 -55 -25 -84 15 -33 51 -42 83 -21 21 14 25
24 25 66 0 50 0 50 -32 50 -18 0 -41 -5 -51 -11z"/>
</g>
</svg>
